<svg width="143" height="127" viewBox="0 0 143 127" fill="none" xmlns="http://www.w3.org/2000/svg">
<g clip-path="url(#clip0_3_3)">
<path d="M88.9728 0.116438C85.8223 0.465688 82.9847 1.55577 80.1805 3.5031C77.1306 5.61977 75.2426 7.8846 73.9578 10.9749C71.3883 17.1662 73.0976 24.0877 78.3819 28.8925C80.7056 30.9986 83.5768 32.4379 86.7943 33.0941C89.3526 33.6127 92.7712 33.5386 95.2961 32.9036C97.3852 32.3744 99.519 31.4431 101.217 30.3001C102.468 29.4534 104.479 27.5908 105.395 26.4266C106.792 24.6486 108.088 22.1615 108.602 20.2883C108.948 19.0289 109.026 16.2666 108.758 14.605C108.658 13.9383 108.557 13.3139 108.546 13.2292C108.535 13.1445 108.49 12.9964 108.457 12.9117C108.412 12.827 108.278 12.4037 108.144 11.9698C107.63 10.287 106.557 8.27619 105.384 6.79452C101.642 2.0426 95.2179 -0.571479 88.9728 0.116438Z" fill="black"/>
<path d="M118.656 4.91067C118.556 5.01651 118.556 5.08001 118.645 5.13292C118.835 5.23876 119.059 5.00592 118.913 4.86834C118.824 4.78367 118.746 4.80484 118.656 4.91067Z" fill="black"/>
<path d="M17.551 21.7593C17.2382 21.8652 16.9366 21.8969 16.7131 21.844C16.5232 21.8017 15.9758 21.7699 15.5066 21.7593C14.8362 21.7487 14.5346 21.8017 14.1659 21.971C13.2163 22.4261 12.8365 22.5425 12.3449 22.5425C12.0656 22.5425 11.8422 22.5848 11.8422 22.6483C11.8422 22.7012 11.6187 22.7542 11.3394 22.7542C10.792 22.7542 10.7473 22.7965 11.0266 23.0928C11.1942 23.2727 11.183 23.2833 10.5462 23.2833C10.1887 23.2833 9.70835 23.3045 9.49608 23.3257C9.28382 23.3468 9.21678 23.3362 9.36202 23.3151C9.69717 23.2516 9.67483 23.0717 9.3285 23.0717C8.99335 23.0717 8.971 22.9552 9.27264 22.7012C9.55194 22.4578 9.55194 22.3308 9.28382 22.3308C9.04921 22.3308 8.49061 22.8177 8.49061 23.0293C8.49061 23.1987 8.31186 23.2304 8.21132 23.0717C8.07725 22.8706 7.93202 22.9658 7.93202 23.241C7.93202 23.4632 7.88733 23.5056 7.7421 23.4421C7.63038 23.3997 7.33991 23.3468 7.09413 23.3257L6.64725 23.2833L7.13882 23.3997C7.4628 23.4738 7.58569 23.5479 7.48514 23.6008C7.40694 23.6432 7.37342 23.7278 7.41811 23.7913C7.541 23.9818 7.35108 24.2358 7.08296 24.2358C6.72546 24.2358 6.7478 24.384 7.12764 24.5639L7.42928 24.7121L6.98241 24.7438C6.68077 24.765 6.4685 24.8497 6.34561 25.0084C6.17803 25.2095 6.12217 25.2201 5.93225 25.1037C5.55241 24.892 5.50772 24.9661 5.86522 25.2412C6.05514 25.3894 6.13335 25.5058 6.05514 25.5058C5.97694 25.5058 5.94342 25.5587 5.98811 25.6328C6.0328 25.7069 6.02163 25.7175 5.93225 25.6752C5.86522 25.6328 5.83171 25.5482 5.86522 25.4952C5.90991 25.4423 5.82053 25.4 5.68647 25.4C5.50772 25.4 5.47421 25.4317 5.56358 25.5376C5.73116 25.7281 5.57475 25.9503 5.36249 25.8233C5.27311 25.7598 5.11671 25.7175 5.02733 25.7281C4.93796 25.7281 5.04967 25.8233 5.28428 25.9397C5.77585 26.1832 5.83171 26.3737 5.37366 26.289C5.19491 26.2572 4.9603 26.2784 4.83741 26.3419C4.65866 26.4372 4.65866 26.4477 4.91561 26.4583C5.13905 26.4583 5.16139 26.4795 5.02733 26.5642C4.77038 26.7229 4.73686 26.7017 4.58046 26.3525C4.50225 26.1726 4.34585 25.9821 4.23413 25.9292C3.91014 25.7598 3.89897 25.8022 4.18944 26.0879C4.46874 26.3419 4.55811 26.67 4.35702 26.67C4.30116 26.67 4.2453 26.6171 4.2453 26.5642C4.2453 26.2996 3.69788 25.9292 3.32921 25.9397C3.01639 25.9609 3.00522 25.9715 3.251 26.0032C3.59733 26.0562 4.07772 26.5007 3.966 26.6594C3.93249 26.7229 3.85428 26.7547 3.79842 26.7229C3.64202 26.6382 3.01639 26.8922 3.01639 27.051C3.01639 27.1674 2.97171 27.178 2.80413 27.1039C2.63655 27.0087 2.61421 27.0298 2.64772 27.2309C2.69241 27.4532 2.65889 27.4637 2.21202 27.4426C1.88803 27.4214 1.80983 27.4426 1.98858 27.4955C2.25671 27.5696 2.27905 27.6331 2.08913 28.0141C1.93272 28.3527 2.08913 28.9454 2.44663 29.2841C2.71475 29.5275 2.74827 29.6439 2.71475 29.972C2.65889 30.353 2.64772 30.3636 2.42428 30.2154C2.1003 30.0037 1.93272 30.0143 2.15616 30.2472C2.36842 30.4694 2.59186 31.0092 2.46897 31.0092C2.42428 31.0092 2.26788 30.8927 2.12264 30.7446C1.85452 30.48 1.03897 30.1413 0.335143 30.0143C-0.167591 29.9297 0.0223305 30.099 0.61444 30.2683C1.63108 30.5647 2.34608 31.1573 2.34608 31.6971C2.34608 32.004 1.97741 31.8135 1.63108 31.3267C1.53053 31.1891 1.45233 31.1256 1.45233 31.1891C1.45233 31.2632 1.60874 31.4854 1.78749 31.6759C2.20085 32.131 2.22319 32.3003 1.83217 31.9511C1.57522 31.7288 1.55288 31.7288 1.65342 31.9193C1.79866 32.1839 1.88803 33.3375 1.75397 33.3375C1.70928 33.3375 1.68694 33.3798 1.72046 33.4327C1.76514 33.4857 1.67577 33.5068 1.55288 33.4751C1.37413 33.4327 1.32944 33.4539 1.36296 33.5597C1.42999 33.7502 1.21772 33.9407 0.882565 33.9937C0.513893 34.036 0.580924 34.2159 0.994284 34.3323C1.35178 34.4276 1.4635 34.6075 1.17303 34.6075C1.08366 34.6075 1.00546 34.6498 1.00546 34.7133C1.00546 34.7662 1.06131 34.8192 1.12835 34.8192C1.21772 34.8192 1.21772 34.8615 1.11717 34.9779C1.05014 35.0626 1.01663 35.1684 1.03897 35.2107C1.07249 35.2637 0.949596 35.3695 0.770846 35.4436C0.547409 35.5388 0.469206 35.6235 0.547409 35.7082C0.692643 35.8881 0.636784 37.2004 0.458034 37.4015C0.335143 37.5391 0.346315 37.7296 0.491549 38.5762C0.592096 39.1266 0.726159 39.7087 0.782018 39.8568C0.849049 40.0156 0.927252 40.9787 0.949596 42.0052C1.01663 44.1854 1.13952 45.0321 1.57522 46.2174C1.75397 46.6937 1.89921 47.2017 1.89921 47.3392C1.89921 47.8049 2.55835 50.7788 2.79296 51.3715C3.06108 52.0277 3.83194 53.213 4.06655 53.2977C4.15592 53.3294 4.2453 53.4882 4.27881 53.6469C4.31233 53.8162 4.41288 54.0173 4.50225 54.102C4.73686 54.3137 4.93796 54.7052 4.87092 54.8111C4.83741 54.8534 4.8821 54.991 4.97147 55.0968C5.06085 55.2027 5.13905 55.3826 5.13905 55.4778C5.13905 55.5731 5.20608 55.7212 5.28428 55.7953C5.44069 55.9329 5.65296 56.6843 5.5971 56.8748C5.58592 56.9277 5.63061 57.0018 5.69764 57.0442C5.85405 57.1394 6.04397 57.8908 5.90991 57.8908C5.85405 57.8908 5.80936 57.9437 5.80936 58.0072C5.80936 58.0602 5.86522 58.0813 5.94342 58.039C6.01046 57.9967 6.0328 58.0072 5.99928 58.0813C5.9546 58.1342 5.9546 58.2612 5.98811 58.3565C6.04397 58.4835 6.09983 58.5047 6.20038 58.42C6.32327 58.3247 6.33444 58.3459 6.28975 58.5152C6.25624 58.6422 6.27858 58.7375 6.35678 58.7375C6.42382 58.7375 6.47967 58.8327 6.47967 58.9386C6.47967 59.055 6.53553 59.182 6.60257 59.2137C6.65842 59.2561 6.69194 59.3407 6.6696 59.4042C6.64725 59.4783 6.72546 59.6688 6.84835 59.8382C7.04944 60.1133 7.04944 60.1451 6.89303 60.2297C6.73663 60.325 6.73663 60.3567 6.90421 60.6742C7.00475 60.8542 7.13882 61.0447 7.19467 61.0764C7.23936 61.1187 7.19467 61.1928 7.09413 61.2563C6.97124 61.3198 6.91538 61.4257 6.96007 61.5315C7.00475 61.6267 7.03827 61.7432 7.03827 61.7855C7.04944 61.8278 7.14999 61.9654 7.28405 62.0924C7.40694 62.2194 7.47397 62.3676 7.44046 62.4311C7.39577 62.484 7.41811 62.5581 7.48514 62.6004C7.541 62.6322 7.59686 62.611 7.59686 62.5369C7.59686 62.2194 7.73092 62.5792 7.77561 63.0132C7.80913 63.3942 7.78678 63.4788 7.66389 63.4365C7.42928 63.3518 7.33991 63.5847 7.56335 63.6905C7.67507 63.7434 7.98788 63.8281 8.256 63.8704C8.66936 63.9339 8.71405 63.9657 8.54647 64.0503C8.41241 64.1244 8.22249 64.1244 7.94319 64.0503C7.57452 63.9445 7.55217 63.9445 7.76444 64.0927C7.92085 64.2091 8.14428 64.2408 8.49061 64.2091C8.99335 64.1562 8.99335 64.1562 8.73639 64.3467C8.43475 64.5795 8.42358 64.6642 8.71405 64.6642C8.83694 64.6642 8.93749 64.7065 8.93749 64.77C8.93749 64.8229 9.01569 64.8758 9.10507 64.8758C9.19444 64.8758 9.27264 64.9393 9.27264 65.0134C9.27264 65.2039 9.77538 65.4473 9.98764 65.3732C10.0994 65.3309 10.2111 65.3838 10.2781 65.5108C10.3451 65.6378 10.4569 65.6907 10.5686 65.6484C10.658 65.6167 10.8032 65.6802 10.8926 65.786C10.9819 65.9024 11.0601 65.9447 11.0601 65.8918C11.0601 65.8389 11.1383 65.8601 11.2165 65.9342C11.3394 66.0188 11.44 66.0294 11.5852 65.9447C11.7305 65.8707 11.831 65.8812 11.9539 65.9765C12.0433 66.0506 12.2891 66.1458 12.5013 66.1882L12.8923 66.2517L12.6242 65.9871C12.4231 65.786 12.4008 65.7225 12.5348 65.7225C12.6354 65.7225 12.7359 65.7966 12.7806 65.8812C12.8141 65.9659 12.9258 66.04 13.0152 66.04C13.1493 66.04 13.1828 65.9765 13.1158 65.8072C13.0487 65.5955 13.0599 65.5849 13.2163 65.7119C13.328 65.7966 13.4844 65.8177 13.5962 65.7754C13.7079 65.7225 13.8308 65.7013 13.8755 65.7013C13.9201 65.7119 14.1212 65.6272 14.3223 65.5108C14.5234 65.3944 14.8251 65.2357 15.0038 65.1722C15.1714 65.0981 15.3055 64.9605 15.3055 64.8441C15.3055 64.7382 15.4507 64.5689 15.6406 64.4737C15.8194 64.3784 15.9758 64.262 15.9758 64.2091C15.9758 64.1667 16.3556 64.4419 16.8248 64.8123C17.2941 65.1827 18.0537 65.6696 18.5006 65.8918C19.1933 66.2305 19.3273 66.3363 19.2715 66.5162C19.1151 67.1089 18.8693 69.7018 18.8469 71.0565C18.8246 72.4535 18.8469 72.6017 19.0592 72.8874C19.2268 73.0991 19.3162 73.4166 19.3608 73.9669C19.3944 74.4008 19.4726 74.7818 19.5284 74.8136C19.5843 74.8453 19.6848 75.3322 19.763 75.8825C20.0423 77.9886 20.6344 80.2217 21.3718 81.9785C21.7628 82.8887 21.7851 83.0157 21.7851 84.0952C21.7851 86.9527 22.3996 89.3445 23.5503 90.932C23.7514 91.2177 23.9078 91.5882 23.9525 91.948C24.1648 93.5037 25.2931 95.0066 27.1476 96.2025C27.4828 96.4142 28.5218 96.9857 29.4379 97.4725C30.3651 97.9487 31.4488 98.552 31.851 98.806C32.3314 99.1129 32.6554 99.2505 32.7783 99.2082C32.89 99.1658 33.0687 99.2187 33.214 99.3457C33.348 99.4622 33.5491 99.5892 33.6497 99.6209C33.7614 99.6632 33.9401 100.023 34.1301 100.605C34.6887 102.33 35.9287 104.828 37.3923 107.135C37.6157 107.484 37.7498 107.791 37.6939 107.844C37.5487 107.971 35.5266 108.564 34.5881 108.754C34.1524 108.85 33.1469 108.945 32.3426 108.977C30.0635 109.061 28.3095 108.744 25.8629 107.823L24.7457 107.41L23.7179 106.267C23.1593 105.643 21.9304 104.246 20.9919 103.177C18.8916 100.785 18.0202 99.9596 17.1153 99.5045C15.73 98.806 14.2218 98.9647 13.4621 99.8961C13.2387 100.161 13.0376 100.489 12.9929 100.626C12.937 100.859 12.8923 100.87 12.4119 100.806C11.7751 100.732 11.2277 100.965 10.859 101.494C10.6356 101.801 10.6021 101.939 10.6691 102.341C10.7138 102.605 10.7585 103.029 10.7697 103.293C10.7808 103.748 10.7585 103.77 10.3898 103.886C9.78655 104.076 9.58546 104.426 9.49608 105.431C9.46257 105.918 9.35085 106.458 9.2503 106.627C9.16092 106.807 8.84811 107.357 8.55764 107.876C8.11077 108.691 8.04374 108.881 8.04374 109.453C8.04374 110.638 8.80342 111.601 10.3116 112.353C10.7585 112.564 11.3506 112.945 11.6411 113.199C13.0711 114.459 14.5681 115.041 16.4785 115.094C17.16 115.115 18.1208 115.189 18.6235 115.263C19.3385 115.369 19.7742 115.369 20.6791 115.274L21.8187 115.147L22.947 115.676C23.5726 115.962 25.0808 116.755 26.3098 117.433C29.9406 119.443 31.3371 120.078 33.8508 120.883C37.4034 122.026 40.9114 122.513 44.7657 122.428C45.9611 122.396 46.9107 122.407 46.8883 122.439C46.3409 123.37 46.1287 124.354 46.1622 125.751L46.1957 126.947L49.6031 126.915C52.9212 126.894 59.0545 126.788 69.1539 126.577C71.891 126.513 79.2533 126.418 85.5207 126.365C95.7318 126.28 101.251 126.153 103.317 125.984C103.977 125.931 104.01 125.91 103.943 125.698C103.63 124.735 99.2509 117.422 97.4746 114.882C96.1787 113.03 94.8604 111.464 93.3969 110.035L92.2685 108.924L92.5031 108.564C92.8159 108.066 92.7824 107.675 92.3355 106.945C91.2407 105.177 91.1625 104.722 91.4306 102.235C91.52 101.335 91.6317 100.139 91.6764 99.5892C91.8105 97.7053 91.3636 95.3029 90.6151 93.8953C89.9894 92.7206 88.7941 91.4612 87.9897 91.1119C87.7327 90.9955 87.6992 90.9214 87.6992 90.3922C87.688 89.3868 87.0624 88.4026 86.1351 87.9475C85.9117 87.8417 85.3419 87.6512 84.8616 87.5136C83.7667 87.2172 83.4204 86.9209 83.1746 86.0848C82.8618 84.9842 82.6048 84.582 82.0351 84.2539C80.9849 83.6507 80.8062 83.4496 80.4822 82.5182C80.3146 82.042 80.0576 81.4599 79.9012 81.2271C79.1192 80.0206 77.5328 78.9093 75.5889 78.2214L74.8292 77.9462L74.5164 77.1525C73.8796 75.4803 73.2987 74.7395 71.8575 73.7235C70.4722 72.7498 69.5002 71.5962 69.6566 71.1094C69.7013 70.993 69.6119 70.8554 69.3997 70.7178C69.2321 70.6014 68.7517 69.9876 68.3495 69.3526C67.9362 68.7176 67.4781 68.072 67.3329 67.9238C67.1653 67.7545 67.0759 67.5534 67.1094 67.437C67.143 67.31 66.9642 67.0454 66.5285 66.6115C65.7018 65.786 64.0372 63.9233 62.9535 62.6004L62.0821 61.5421L64.3053 61.3092C67.4669 60.9706 69.746 60.5049 72.673 59.6159C73.1646 59.4677 73.9243 59.3302 74.3488 59.309C74.7845 59.2878 76.0358 59.2032 77.1418 59.1079C81.834 58.7481 89.2744 58.3882 95.743 58.2083C102.949 58.0072 110.099 58.1025 116.299 58.4835C117.807 58.5787 119.539 58.674 120.154 58.6846C120.768 58.7057 121.572 58.801 121.941 58.8857C122.299 58.9809 123.025 59.055 123.527 59.055C124.376 59.055 124.455 59.0762 124.455 59.2667C124.455 59.4466 124.533 59.4783 125.047 59.4783C125.371 59.4783 125.695 59.4254 125.762 59.3619C125.929 59.2032 126.466 59.3302 126.466 59.5312C126.466 59.7323 126.946 59.8382 127.225 59.7006C127.359 59.6371 127.594 59.5842 127.75 59.5842C128.063 59.5842 128.588 59.2984 129.013 58.8751C129.303 58.5999 129.627 58.547 129.527 58.7904C129.471 58.9174 129.527 58.9386 129.828 58.8857C130.633 58.7481 131.906 58.3882 132.253 58.1977C132.465 58.0813 132.666 58.0178 132.711 58.039C132.8 58.0919 135.794 57.2876 136.833 56.9277C137.179 56.8113 137.57 56.6843 137.693 56.6526C138.308 56.515 141.425 55.5096 141.771 55.3508C142.598 54.9487 143 54.3348 142.978 53.4987C142.978 53.1072 142.911 52.9696 142.654 52.7579C142.475 52.6203 142.117 52.4722 141.849 52.4404C141.201 52.3452 139.336 52.6521 138.196 53.0331C136.889 53.4776 135.995 53.6363 134.643 53.6787L133.493 53.721L133.917 53.5199C134.532 53.2236 135.046 52.7262 135.37 52.1229C135.537 51.816 136.029 51.2551 136.52 50.8L137.392 50.0062L137.47 49.2972C137.57 48.4399 137.425 48.1647 136.744 47.8367C135.738 47.3498 134.789 47.6356 133.37 48.8421C132.8 49.3289 132.197 49.7734 132.04 49.8369L131.739 49.9322L131.917 49.6041C132.007 49.4242 132.152 48.7045 132.23 48.006C132.331 47.117 132.465 46.5243 132.666 46.0587C133.113 45.0215 133.213 44.4182 133.012 44.0478C132.655 43.4022 131.314 43.1906 130.555 43.6562C130.264 43.8362 130.264 43.8362 130.264 43.561C130.264 42.8731 129.65 42.3333 128.879 42.3333C127.717 42.3333 126.812 43.2964 126.801 44.5347C126.801 45.2332 126.577 45.6671 126.164 45.7729C125.996 45.8047 125.773 45.9105 125.661 46.0057C125.561 46.0904 125.214 46.1751 124.879 46.1962C124.231 46.228 122.745 46.863 122.622 47.1487C122.589 47.2334 122.466 47.3075 122.354 47.3075C122.042 47.3075 121.181 47.8684 121.003 48.1859C120.913 48.3447 120.768 48.4717 120.667 48.4717C120.288 48.4717 119.64 48.7045 119.327 48.9479C118.925 49.276 118.4 49.2866 115.327 49.0537C112.568 48.8421 110.434 48.5987 104.569 47.8367C96.3574 46.7677 94.313 46.5772 90.157 46.4926C86.0458 46.4079 83.0294 46.6513 80.2699 47.2863C78.8064 47.625 78.3148 47.625 74.6281 47.3075C70.3046 46.9371 67.2882 46.4926 62.9312 45.6036L60.7862 45.1591L60.8532 44.8627L60.9202 44.5558H60.1941C59.0769 44.5558 57.6916 44.2912 55.77 43.6986C53.1669 42.8942 52.6642 42.7672 51.5023 42.5979C50.1505 42.4074 49.5137 42.4815 49.3685 42.8307L49.268 43.0953L48.8993 42.8837C48.4748 42.6508 47.8826 42.4497 47.4134 42.3862C47.2347 42.3651 46.9107 42.291 46.6984 42.2381C46.0951 42.0582 45.8158 42.1005 45.503 42.3968C45.1567 42.7249 44.8327 42.7355 43.9837 42.4497C42.3861 41.9206 40.2411 41.7301 37.8168 41.8994C34.1859 42.164 31.4041 42.7461 29.7619 43.5927C29.4267 43.7621 29.1362 43.8573 29.0915 43.8044C29.058 43.7515 29.0915 43.5292 29.1474 43.3176C29.5496 41.9523 28.991 40.64 27.9073 40.386C27.6392 40.3331 27.6057 40.259 27.5387 39.7087C27.5051 39.3806 27.4493 38.9784 27.4269 38.8091C27.3934 38.608 27.4269 38.5233 27.5387 38.5233C27.628 38.5233 27.7062 38.4704 27.7062 38.4175C27.7062 38.354 27.628 38.3117 27.5387 38.3117C27.3487 38.3117 27.3264 38.1635 27.4828 37.8883C27.5722 37.7402 27.5498 37.6555 27.3934 37.5497C27.0806 37.338 26.9912 37.1369 27.1476 37.0417C27.2258 36.9887 27.3152 36.8088 27.3264 36.6289C27.3599 36.3855 27.3264 36.322 27.2035 36.3643C27.1141 36.4067 27.0583 36.4702 27.0918 36.5125C27.1253 36.5654 27.103 36.6289 27.0471 36.6607C27.0024 36.6924 26.9242 36.5442 26.8907 36.3326C26.8348 36.0468 26.8683 35.9092 26.9801 35.8457C27.1923 35.7399 27.1923 35.4647 26.9801 35.3907C26.8795 35.3483 26.8125 35.1896 26.8125 34.9779C26.8125 34.7027 26.8683 34.6181 27.0471 34.5863L27.2705 34.5546L27.0471 34.3217C26.779 34.0572 26.7455 33.7608 26.9465 33.5703C27.0471 33.4751 27.0359 33.4433 26.8907 33.4433C26.7901 33.4433 26.7008 33.3904 26.7008 33.3375C26.7008 33.274 26.8237 33.2317 26.9801 33.2317C27.1365 33.2317 27.2594 33.1787 27.2594 33.1258C27.2594 33.0623 27.1253 33.02 26.9689 33.02C26.7343 33.02 26.6896 32.9882 26.7566 32.8295C26.8013 32.7342 26.8683 32.5014 26.9019 32.3321C26.9242 32.1522 26.9912 31.9617 27.0471 31.9087C27.1476 31.7712 26.8348 31.115 26.6226 31.0409C26.5444 31.0092 26.4773 30.9139 26.4773 30.8292C26.4773 30.5647 25.9076 29.6439 25.6283 29.4746C25.4719 29.3793 25.3937 29.2523 25.4383 29.1253C25.4719 28.9983 25.416 28.8925 25.3155 28.8607C25.092 28.7761 25.0808 28.575 25.3043 28.575C25.6059 28.575 25.483 28.3951 25.0585 28.2257C24.6563 28.0776 24.6451 28.067 24.9356 28.0564C25.1702 28.0458 25.2373 28.0035 25.2149 27.8447C25.159 27.5378 24.9356 27.3262 24.4887 27.1886C23.9078 27.0192 23.5726 26.797 23.5726 26.5959C23.5726 26.5007 23.4833 26.3313 23.3827 26.2255C23.2487 26.0879 23.2375 26.035 23.338 26.0562C23.4162 26.0773 23.5168 26.0244 23.5391 25.9609C23.6062 25.8022 23.1034 25.3471 22.6677 25.1672C22.2544 24.9978 22.2655 24.9237 22.6789 24.7438C23.0699 24.5851 23.1146 24.4475 22.7683 24.4475C22.6342 24.4475 22.5672 24.4157 22.6007 24.3734C22.6454 24.3311 22.9582 24.3205 23.3045 24.3311C23.7737 24.3522 23.919 24.3205 23.8855 24.2252C23.8073 24.0136 23.2822 23.9183 22.1762 23.8972C21.5617 23.8972 21.1037 23.8337 21.0031 23.7596C20.9137 23.6855 20.7126 23.5902 20.5674 23.5479C20.3328 23.4844 20.3216 23.4527 20.478 23.368C20.5898 23.3151 20.668 23.2198 20.668 23.1563C20.668 23.0505 20.4892 23.0717 20.0647 23.2304C19.8636 23.3151 19.8636 23.3045 20.0535 23.0293L20.2546 22.7436L19.6625 22.8177C19.0927 22.8917 19.0816 22.8812 19.2044 22.6695C19.3162 22.479 19.2826 22.4472 18.9587 22.3732L18.6012 22.2991L18.9922 22.1721C19.305 22.0662 19.3497 22.0239 19.1933 21.9604C19.0816 21.9181 18.9922 21.8228 18.9922 21.7382C18.9922 21.5371 18.1878 21.5477 17.551 21.7593ZM5.92108 25.9292C5.92108 25.9821 5.89874 26.035 5.87639 26.035C5.84288 26.035 5.78702 25.9821 5.7535 25.9292C5.71999 25.8657 5.74233 25.8233 5.79819 25.8233C5.86522 25.8233 5.92108 25.8657 5.92108 25.9292ZM2.12264 32.5014C2.12264 32.5649 2.07796 32.5755 2.01092 32.5437C1.95506 32.512 1.89921 32.4273 1.89921 32.3744C1.89921 32.3109 1.95506 32.3003 2.01092 32.3321C2.07796 32.3638 2.12264 32.4485 2.12264 32.5014ZM0.703815 37.5708C0.670299 37.6978 0.61444 37.7719 0.580924 37.7402C0.525065 37.6767 0.636784 37.3592 0.714987 37.3592C0.737331 37.3592 0.737331 37.4544 0.703815 37.5708ZM129.94 43.6033C130.052 43.9314 130.052 44.0584 129.951 44.1537C129.851 44.2489 129.817 44.2066 129.817 43.9526C129.817 43.5822 129.705 43.4763 129.27 43.4446C128.532 43.3917 128.521 43.3811 128.979 43.1906C129.538 42.9472 129.761 43.0424 129.94 43.6033ZM132.476 43.9843C132.822 44.2066 132.968 44.5029 132.878 44.8204L132.811 45.0956L132.51 44.7675C132.297 44.5241 132.096 44.4182 131.739 44.3759C131.314 44.323 131.292 44.3018 131.459 44.1748C131.638 44.0372 131.627 44.0267 131.325 44.0902C130.923 44.1748 130.32 44.5876 130.141 44.8839C130.074 45.0109 129.996 45.0744 129.962 45.0427C129.84 44.9262 130.42 44.2172 130.8 44.0267C131.303 43.7832 132.13 43.7515 132.476 43.9843ZM129.594 45.7623C129.594 45.7941 129.549 45.847 129.482 45.8787C129.426 45.9105 129.37 45.8893 129.37 45.8364C129.37 45.7729 129.426 45.72 129.482 45.72C129.549 45.72 129.594 45.7412 129.594 45.7623ZM127.114 46.1327C127.315 46.2492 127.236 46.6196 127.024 46.6196C126.924 46.6196 126.845 46.5032 126.823 46.3232C126.79 46.0269 126.857 45.974 127.114 46.1327ZM65.3555 46.5032C66.1263 46.6407 67.4669 46.863 68.3495 47.0006C69.2209 47.1276 69.9136 47.2546 69.8912 47.2757C69.8689 47.2969 69.1539 47.244 68.3048 47.1593C66.9195 47.0112 63.6238 46.3444 63.4562 46.1751C63.4227 46.1433 63.5233 46.1433 63.6797 46.1751C63.8361 46.2068 64.5846 46.355 65.3555 46.5032ZM126.577 46.8524C126.577 46.9582 126.533 47.1064 126.477 47.1805C126.41 47.2863 126.365 47.2546 126.332 47.0535C126.298 46.9053 126.298 46.7572 126.332 46.7254C126.454 46.609 126.577 46.6831 126.577 46.8524ZM130.085 47.0535C130.141 47.2017 130.13 47.2122 129.985 47.0958C129.795 46.9477 129.772 46.8842 129.918 46.8842C129.974 46.8842 130.052 46.9582 130.085 47.0535ZM125.348 47.2969C125.348 47.5403 125.17 47.6779 125.069 47.5192C124.969 47.371 125.08 47.0958 125.237 47.0958C125.293 47.0958 125.348 47.1911 125.348 47.2969ZM80.3705 47.6779C80.2364 47.7732 79.9236 47.8261 79.5437 47.8155H78.9293L79.6555 47.6779C80.6386 47.498 80.6162 47.498 80.3705 47.6779ZM127.359 48.2388C127.371 48.2706 127.326 48.3235 127.259 48.3447C127.147 48.3764 126.689 47.7732 126.689 47.5827C126.689 47.4874 127.337 48.1118 127.359 48.2388ZM131.85 48.6516C131.75 48.9056 131.739 48.8421 131.739 48.26C131.739 47.6144 131.75 47.5932 131.85 47.9637C131.929 48.2282 131.917 48.4611 131.85 48.6516ZM101.407 47.9002C101.374 47.9319 101.273 47.9425 101.195 47.9107C101.105 47.879 101.139 47.8472 101.262 47.8472C101.385 47.8367 101.452 47.8684 101.407 47.9002ZM128.51 48.2071C128.477 48.3023 128.421 48.3552 128.398 48.3235C128.365 48.2917 128.376 48.2282 128.421 48.1647C128.521 47.9954 128.588 48.0272 128.51 48.2071ZM127.951 48.7892C128.119 48.9162 128.253 48.9585 128.275 48.8844C128.342 48.7045 128.7 48.9056 128.7 49.1172C128.7 49.5088 128.376 49.4665 127.929 49.0114C127.471 48.5457 127.482 48.4399 127.951 48.7892ZM136.42 48.7468C136.498 48.8315 136.654 48.8844 136.766 48.8632C136.99 48.7997 137.045 48.9479 136.833 49.022C136.755 49.0537 136.52 48.9585 136.308 48.8209C136.096 48.6939 136.006 48.5775 136.096 48.5775C136.196 48.5775 136.33 48.6516 136.42 48.7468ZM120.746 49.3395C120.701 49.4665 120.098 49.6676 120.008 49.5829C119.964 49.5406 120.545 49.2231 120.69 49.2125C120.746 49.2125 120.768 49.2654 120.746 49.3395ZM118.534 49.8052C118.534 49.9427 118.444 49.9533 118.009 49.8898C116.634 49.7099 116.545 49.657 117.562 49.6464C118.377 49.6358 118.534 49.6676 118.534 49.8052ZM129.56 50.5248C129.884 50.7682 130.141 50.9905 130.152 51.0328C130.164 51.2445 129.851 51.0646 129.281 50.5248C128.577 49.8687 128.678 49.8687 129.56 50.5248ZM130.823 53.2765C131.091 53.7104 131.705 54.0914 132.23 54.1761C132.521 54.229 132.577 54.2713 132.498 54.3983C132.409 54.5253 132.331 54.5147 131.917 54.3031C131.325 53.9856 130.856 53.594 130.644 53.2024C130.42 52.8002 130.532 52.8426 130.823 53.2765ZM140.821 53.34C141 53.4141 140.978 53.4352 140.654 53.4352C140.442 53.4458 139.738 53.5622 139.101 53.7104C138.453 53.8586 137.883 53.9644 137.827 53.9432C137.57 53.8692 139.604 53.3506 140.542 53.2553C140.576 53.2553 140.699 53.2871 140.821 53.34ZM125.963 53.6575C126.667 53.9432 127.471 54.5042 127.471 54.7052C127.471 54.8111 127.348 54.7582 127.102 54.5253C126.901 54.3454 126.387 54.0173 125.963 53.8162C125.114 53.4141 125.114 53.3188 125.963 53.6575ZM142.441 53.8586C142.441 54.2078 142.274 54.3772 142.184 54.1443C142.106 53.9538 142.218 53.5517 142.341 53.5517C142.397 53.5517 142.441 53.6892 142.441 53.8586ZM117.863 55.4249C117.863 56.4092 117.83 56.8325 117.752 56.7267C117.584 56.4727 117.64 53.975 117.819 53.975C117.841 53.975 117.863 54.6312 117.863 55.4249ZM132.945 54.2925C132.945 54.3454 132.901 54.3983 132.834 54.3983C132.778 54.3983 132.722 54.3454 132.722 54.2925C132.722 54.229 132.778 54.1867 132.834 54.1867C132.901 54.1867 132.945 54.229 132.945 54.2925ZM135.124 54.61C135.001 54.6629 134.454 54.6947 133.895 54.6841L132.889 54.6735L133.839 54.61C135.358 54.5042 135.381 54.5042 135.124 54.61ZM128.443 55.753C128.655 56.0705 128.812 56.3457 128.778 56.3668C128.722 56.4197 127.695 55.0757 127.695 54.9592C127.695 54.8111 128.097 55.245 128.443 55.753ZM132.476 55.1603C132.666 55.3402 132.644 55.7742 132.443 55.7742C132.264 55.7742 131.906 55.2027 132.018 55.0968C132.13 54.991 132.331 55.0227 132.476 55.1603ZM123.002 56.6526C123.002 56.7902 122.645 57.1394 122.366 57.2982C122.131 57.4252 122.209 57.1817 122.511 56.8431C122.812 56.4938 123.002 56.4197 123.002 56.6526ZM8.23366 63.5635C8.20014 63.5952 8.0996 63.6058 8.02139 63.5741C7.93202 63.5423 7.96553 63.5106 8.08842 63.5106C8.21132 63.5 8.27835 63.5317 8.23366 63.5635ZM11.507 65.6167C11.507 65.6696 11.4847 65.7225 11.4623 65.7225C11.4288 65.7225 11.373 65.6696 11.3394 65.6167C11.3059 65.5532 11.3283 65.5108 11.3841 65.5108C11.4512 65.5108 11.507 65.5532 11.507 65.6167ZM91.3859 106.892C91.7434 107.072 92.168 107.643 92.168 107.95C92.168 108.352 91.8998 108.553 91.6205 108.363C91.4083 108.215 89.1292 106.362 88.8164 106.087C88.66 105.95 90.9279 106.659 91.3859 106.892ZM55.5466 114.215C55.4683 114.289 55.4125 114.3 55.4125 114.236C55.4125 114.088 55.5466 113.961 55.6248 114.035C55.6471 114.067 55.6136 114.152 55.5466 114.215ZM54.1054 116.216C54.0383 116.279 54.0272 116.184 54.0607 115.972C54.1054 115.676 54.1277 115.665 54.1612 115.877C54.1836 116.014 54.1612 116.163 54.1054 116.216Z" fill="black"/>
</g>
<defs>
<clipPath id="clip0_3_3">
<rect width="143" height="127" fill="white"/>
</clipPath>
</defs>
</svg>
